<?xml version="1.0" encoding="UTF-8" standalone="no"?>
<svg
   viewBox="0 0 40 40"
   version="1.1"
   id="svg11"
   width="40"
   height="40"
   xmlns="http://www.w3.org/2000/svg"
   xmlns:svg="http://www.w3.org/2000/svg">
  <defs
     id="defs15" />
  <g
     id="g246"
     transform="translate(2.6333194,2)">
    <path
       fill="#10c28d"
       d="m 15.701713,0.01099204 c -0.802233,0.06392297 -1.259282,0.52736427 -1.467032,1.25928286 -0.172592,0.6072678 -0.210946,1.2241242 -0.150219,1.853766 0.310026,3.160991 0.588092,6.3251775 0.926883,9.4829721 0.175788,1.610859 0.351577,3.224914 0.754291,4.797419 0.194966,0.754291 0.773468,1.016375 1.527759,0.974825 0.722329,-0.03835 1.054729,-0.434676 1.179379,-1.112259 0.188573,-0.994003 0.07991,-1.991201 0.153415,-3.336779 C 18.43442,10.417652 18.233062,6.5599004 17.999744,2.7021493 17.961394,2.0884888 17.855917,1.4684357 17.539498,0.90271763 17.133587,0.17719175 16.494358,-0.05612687 15.701713,0.01099204 Z m 7.68354,2.08388866 c -0.683975,0.057531 -1.204947,0.5753067 -1.431874,1.5341512 -0.18218,0.7894489 -0.268476,1.5980739 -0.361165,2.4035041 -0.396322,3.5317437 -0.910902,7.0539 -1.038748,10.774216 0,0.05753 0.0064,0.274869 0,0.492207 -0.03196,0.805429 0.326007,1.307225 1.15381,1.467032 0.939668,0.178984 1.262479,-0.43148 1.43507,-1.137829 0.751095,-3.001183 1.131437,-6.066289 1.569309,-9.1218067 0.214142,-1.4798169 0.568915,-2.9436541 0.584896,-4.4458432 0.01279,-1.1697906 -0.5817,-1.8633546 -1.607663,-1.9656314 -0.102277,-0.00959 -0.204554,-0.00959 -0.303635,0 z M 8.7500912,2.4784185 c -0.1086694,0.0032 -0.220535,0.015981 -0.3355964,0.038354 -1.0131788,0.2077494 -1.4606396,0.815018 -1.4606396,2.2500882 0.02237,0.1438264 0.063927,0.5497375 0.1534152,0.939668 0.5337569,2.2788544 1.0611212,4.5609033 1.6204476,6.8333653 0.4762256,1.936866 1.0675129,3.848163 1.754685,5.727498 0.294046,0.808625 1.009983,1.179378 1.802628,1.000394 0.82141,-0.18218 1.013178,-0.763879 0.971629,-1.489405 C 13.24068,17.49712 13.211912,17.219055 13.176753,16.94099 12.809199,14.221068 12.26905,11.529911 11.706528,8.8451466 11.354951,7.1703649 11.188752,5.4476398 10.559111,3.8335854 10.213927,2.9418598 9.5203625,2.462438 8.7500912,2.4784185 Z M 29.362051,7.1767576 c -0.664799,-0.044748 -1.061121,0.4154989 -1.355167,0.978021 -0.204553,0.3867337 -0.367557,0.8022334 -0.460245,1.224125 -0.677584,3.0107714 -1.511778,5.9863854 -2.106262,9.0163344 -0.163004,0.815018 0,1.367951 0.799037,1.636428 0.869353,0.290849 1.185771,-0.326007 1.467032,-0.955649 0.958844,-2.151008 1.617251,-4.394703 2.195754,-6.663969 0.300438,-1.172987 0.827803,-2.291638 0.958844,-3.5061744 0.06712,-0.8885296 -0.338791,-1.447855 -1.198555,-1.6747817 -0.105473,-0.028768 -0.204554,-0.047939 -0.300438,-0.054338 z M 4.3330136,15.285386 c -0.4282834,0.05114 -0.5305602,0.370753 -0.4346761,0.96204 0.5081878,3.154599 0.5049918,6.341158 0.5848953,9.524522 0.1086687,4.324388 2.54733,7.661167 6.6991272,9.08665 3.304817,1.131436 6.715107,1.39352 10.163751,0.910902 2.384326,-0.335596 4.714319,-1.550132 6.363532,-3.36874 3.774651,-4.15819 2.154203,-10.365109 -3.189757,-12.151756 -1.761078,-0.591288 -3.860947,-0.709545 -5.99917,-0.728722 -0.751095,0 -1.495797,0.07991 -2.374738,0.201357 -2.540938,0.345184 -4.851753,1.272067 -6.6543806,3.196149 -0.6360335,0.677583 -0.6232489,1.41909 -0.031959,1.9912 0.6679946,0.648818 1.2464976,0.370754 1.8281966,-0.143827 0.687172,-0.604072 1.530955,-1.125044 2.445053,-1.387128 0.210946,-0.06393 0.450658,-0.150219 0.642426,0 0.246104,0.191769 0.02557,0.409107 -0.04475,0.591287 -0.389929,0.997199 -0.412303,2.00079 -0.150219,3.029949 0.68078,2.646411 2.841377,4.100658 5.75946,3.669178 2.230911,-0.329203 3.969616,-2.710334 3.828985,-5.088268 -0.03516,-0.626445 -0.262085,-1.157005 -0.725526,-1.578897 -0.255692,-0.233319 -0.575307,-0.284458 -0.888529,-0.147023 -0.281262,0.12465 -0.274869,0.370753 -0.226927,0.642426 0.12465,0.735114 -0.20775,1.003591 -0.94606,1.003591 -0.728722,0 -1.083494,-0.489011 -1.000394,-1.188968 0.07991,-0.661603 0.543345,-1.032356 1.163398,-1.230517 2.38113,-0.754291 5.180956,1.121848 5.331175,3.563705 0.169396,2.828592 -1.751489,5.206526 -4.87093,5.973602 C 19.42842,33.151854 17.22947,32.985654 15.07207,32.586138 10.731703,31.783905 7.7944425,29.623309 7.9095038,24.314507 7.9574429,22.160303 7.8999143,20.002903 7.5323579,17.871072 7.2830587,16.429606 6.3497834,15.601804 4.8699666,15.323739 4.6526285,15.278991 4.4736442,15.269402 4.3330136,15.28539 Z"
       id="path9"
       style="stroke-width:0.818214" />
  </g>
</svg>
