<svg xmlns="http://www.w3.org/2000/svg"  viewBox="0 0 50 50" width="16px" height="16px"><path fill="#10c28d" d="M 22.425781 3.015625 C 21.445313 3.09375 20.886719 3.660156 20.632813 4.554688 C 20.421875 5.296875 20.375 6.050781 20.449219 6.820313 C 20.828125 10.683594 21.167969 14.550781 21.582031 18.410156 C 21.796875 20.378906 22.011719 22.351563 22.503906 24.273438 C 22.742188 25.195313 23.449219 25.515625 24.371094 25.464844 C 25.253906 25.417969 25.660156 24.933594 25.8125 24.105469 C 26.042969 22.890625 25.910156 21.671875 26 20.027344 C 25.765625 15.734375 25.519531 11.019531 25.234375 6.304688 C 25.1875 5.554688 25.058594 4.796875 24.671875 4.105469 C 24.175781 3.21875 23.394531 2.933594 22.425781 3.015625 Z M 31.816406 5.5625 C 30.980469 5.632813 30.34375 6.265625 30.066406 7.4375 C 29.84375 8.402344 29.738281 9.390625 29.625 10.375 C 29.140625 14.691406 28.511719 18.996094 28.355469 23.542969 C 28.355469 23.613281 28.363281 23.878906 28.355469 24.144531 C 28.316406 25.128906 28.753906 25.742188 29.765625 25.9375 C 30.914063 26.15625 31.308594 25.410156 31.519531 24.546875 C 32.4375 20.878906 32.902344 17.132813 33.4375 13.398438 C 33.699219 11.589844 34.132813 9.800781 34.152344 7.964844 C 34.167969 6.535156 33.441406 5.6875 32.1875 5.5625 C 32.0625 5.550781 31.9375 5.550781 31.816406 5.5625 Z M 13.929688 6.03125 C 13.796875 6.035156 13.660156 6.050781 13.519531 6.078125 C 12.28125 6.332031 11.734375 7.074219 11.734375 8.828125 C 11.761719 9.003906 11.8125 9.5 11.921875 9.976563 C 12.574219 12.761719 13.21875 15.550781 13.902344 18.328125 C 14.484375 20.695313 15.207031 23.03125 16.046875 25.328125 C 16.40625 26.316406 17.28125 26.769531 18.25 26.550781 C 19.253906 26.328125 19.488281 25.617188 19.4375 24.730469 C 19.417969 24.386719 19.382813 24.046875 19.339844 23.707031 C 18.890625 20.382813 18.230469 17.09375 17.542969 13.8125 C 17.113281 11.765625 16.910156 9.660156 16.140625 7.6875 C 15.71875 6.597656 14.871094 6.011719 13.929688 6.03125 Z M 39.121094 11.773438 C 38.308594 11.71875 37.824219 12.28125 37.464844 12.96875 C 37.214844 13.441406 37.015625 13.949219 36.902344 14.464844 C 36.074219 18.144531 35.054688 21.78125 34.328125 25.484375 C 34.128906 26.480469 34.328125 27.15625 35.304688 27.484375 C 36.367188 27.839844 36.753906 27.085938 37.097656 26.316406 C 38.269531 23.6875 39.074219 20.945313 39.78125 18.171875 C 40.148438 16.738281 40.792969 15.371094 40.953125 13.886719 C 41.035156 12.800781 40.539063 12.117188 39.488281 11.839844 C 39.359375 11.804688 39.238281 11.78125 39.121094 11.773438 Z M 8.53125 21.683594 C 8.007813 21.746094 7.882813 22.136719 8 22.859375 C 8.621094 26.714844 8.617188 30.609375 8.714844 34.5 C 8.847656 39.785156 11.828125 43.863281 16.902344 45.605469 C 20.941406 46.988281 25.109375 47.308594 29.324219 46.71875 C 32.238281 46.308594 35.085938 44.824219 37.101563 42.601563 C 41.714844 37.519531 39.734375 29.933594 33.203125 27.75 C 31.050781 27.027344 28.484375 26.882813 25.871094 26.859375 C 24.953125 26.859375 24.042969 26.957031 22.96875 27.105469 C 19.863281 27.527344 17.039063 28.660156 14.835938 31.011719 C 14.058594 31.839844 14.074219 32.746094 14.796875 33.445313 C 15.613281 34.238281 16.320313 33.898438 17.03125 33.269531 C 17.871094 32.53125 18.902344 31.894531 20.019531 31.574219 C 20.277344 31.496094 20.570313 31.390625 20.804688 31.574219 C 21.105469 31.808594 20.835938 32.074219 20.75 32.296875 C 20.273438 33.515625 20.246094 34.742188 20.566406 36 C 21.398438 39.234375 24.039063 41.011719 27.605469 40.484375 C 30.332031 40.082031 32.457031 37.171875 32.285156 34.265625 C 32.242188 33.5 31.964844 32.851563 31.398438 32.335938 C 31.085938 32.050781 30.695313 31.988281 30.3125 32.15625 C 29.96875 32.308594 29.976563 32.609375 30.035156 32.941406 C 30.1875 33.839844 29.78125 34.167969 28.878906 34.167969 C 27.988281 34.167969 27.554688 33.570313 27.65625 32.714844 C 27.753906 31.90625 28.320313 31.453125 29.078125 31.210938 C 31.988281 30.289063 35.410156 32.582031 35.59375 35.566406 C 35.800781 39.023438 33.453125 41.929688 29.640625 42.867188 C 26.980469 43.519531 24.292969 43.316406 21.65625 42.828125 C 16.351563 41.847656 12.761719 39.207031 12.902344 32.71875 C 12.960938 30.085938 12.890625 27.449219 12.441406 24.84375 C 12.136719 23.082031 10.996094 22.070313 9.1875 21.730469 C 8.921875 21.675781 8.703125 21.664063 8.53125 21.683594 Z"/></svg>